<svg width="33" height="35" viewBox="0 0 33 35" fill="none" xmlns="http://www.w3.org/2000/svg">
<path d="M14.3338 0L12.2919 5.19327C11.8836 5.32419 11.516 5.5424 11.1485 5.7606L6.28889 3.57855L3.34863 6.7207L5.39048 11.914C5.18629 12.3504 5.02294 12.6995 4.8596 13.1359L0 15.318V19.6821L4.8596 21.8641C5.02294 22.3005 5.18629 22.6496 5.39048 23.086L3.34863 28.2793L6.28889 31.4215L11.1485 29.2394C11.516 29.414 11.8836 29.6322 12.2919 29.8067L14.3338 35H18.4175L20.4593 29.8067C20.8268 29.6322 21.2352 29.4576 21.6027 29.2394L26.4623 31.4215L29.4026 28.2793L27.3608 23.086C27.5241 22.6933 27.7283 22.2569 27.8916 21.8641L32.7512 19.6821V15.318L27.8916 13.1359C27.7691 12.7431 27.5649 12.3067 27.3608 11.914L29.4026 6.7207L26.4623 3.57855L21.6027 5.7606C21.2352 5.58604 20.8268 5.36783 20.4593 5.19327L18.4175 0L14.3338 0ZM16.3756 10.9102C19.7651 10.9102 22.5012 13.8342 22.5012 17.4564C22.5012 21.0786 19.7651 24.0025 16.3756 24.0025C12.9862 24.0025 10.2501 21.0786 10.2501 17.4564C10.2501 13.8342 12.9862 10.9102 16.3756 10.9102Z" fill="#5A5A5A"/>
</svg>
